<svg xmlns="http://www.w3.org/2000/svg" width="265" height="65" viewBox="0 0 265 65" fill="none"><path fill-rule="evenodd" clip-rule="evenodd" d="M19.5917 35.2424C19.5917 38.3921 21.6215 42.8788 31.8128 42.8788H55.8981C66.0962 42.8788 68.1191 38.3921 68.1191 35.2424C68.1191 32.6666 65.3822 28.9428 59.0198 28.3059V28.2289C62.8484 27.8089 67.048 25.8981 67.048 21.7894C67.048 19.2206 65.2073 15.1539 55.9121 15.1539H31.7988C22.5036 15.1539 20.6625 19.2206 20.6625 21.7894C20.6625 25.8981 24.8622 27.8089 28.691 28.2289V28.3059C22.3286 28.9428 19.5917 32.6666 19.5917 35.2424ZM40.3523 16.0988V41.9269H47.3517V16.0988H40.3523ZM33.5558 28.8168H35.7814V41.9269H31.8128C26.3393 41.9269 25.0163 40.338 25.0163 35.0744C25.0163 29.8108 27.9002 28.8168 33.5558 28.8168ZM32.0927 16.0988H35.7814V27.8509H31.7219C26.9972 27.8509 25.7162 26.192 25.7162 21.7894C25.7162 17.9327 27.3752 16.0988 32.0927 16.0988ZM54.141 28.8168H51.9434V41.9269H55.8981C61.3787 41.9269 62.6946 40.338 62.6946 35.0744C62.6946 29.8108 59.8107 28.8168 54.141 28.8168ZM55.611 16.0988H51.9434V27.8509H55.989C60.7065 27.8509 61.9874 26.192 61.9874 21.7894C61.9874 17.9327 60.3356 16.0988 55.611 16.0988Z" fill="white"></path><path fill-rule="evenodd" clip-rule="evenodd" d="M43.8588 52.6921C23.8615 52.6921 7.5945 42.1929 7.5945 29.2018C7.5945 16.2108 23.8615 5.71158 43.8588 5.71158C63.8562 5.71158 80.116 16.2458 80.116 29.2018C80.116 42.1579 63.8494 52.6921 43.8588 52.6921ZM43.8588 7.11147C24.4773 7.11147 8.70731 17.0157 8.70731 29.2018C8.70731 41.3879 24.4773 51.2852 43.8588 51.2852C63.2404 51.2852 78.996 41.3809 78.996 29.2018C78.996 17.0227 63.2055 7.11147 43.8588 7.11147Z" fill="white"></path><path fill-rule="evenodd" clip-rule="evenodd" d="M0 29.2018C0 45.5736 19.2626 58.4107 43.8588 58.4107C68.4479 58.4107 87.7033 45.5806 87.7033 29.2018C87.7033 12.823 68.4548 0 43.8588 0C19.2626 0 0 12.8301 0 29.2018ZM3.36679 29.2018C3.36679 15.6508 21.9082 4.19969 43.8588 4.19969C65.8019 4.19969 84.3437 15.6438 84.3437 29.2018C84.3437 42.7598 65.8091 54.197 43.8588 54.197C21.9082 54.197 3.36679 42.7528 3.36679 29.2018Z" fill="white"></path><path fill-rule="evenodd" clip-rule="evenodd" d="M101.555 64.7242L100.918 63.0163H98.4476L97.8317 64.7242H97.2367L99.4275 58.9566H99.9664L102.15 64.7242H101.555ZM99.7986 59.9645L99.7426 59.7896C99.732 59.7534 99.7228 59.717 99.7149 59.6802C99.7063 59.64 99.6992 59.5994 99.6934 59.5586C99.6886 59.593 99.6828 59.6273 99.6759 59.6614C99.6705 59.6882 99.6646 59.7148 99.6578 59.7413L99.6445 59.7896C99.6271 59.849 99.6059 59.9075 99.5816 59.9645L98.6506 62.5334H100.75L99.7986 59.9645Z" fill="white"></path><path d="M103.963 58.9566V64.7242H106.812V64.2342H104.502V58.9566H103.963Z" fill="white"></path><path d="M109.906 62.5613V64.7242H109.402V62.5754L107.589 58.9566H108.198L109.514 61.6514C109.527 61.6719 109.538 61.6931 109.549 61.7148C109.562 61.7419 109.574 61.7698 109.584 61.7984C109.584 61.8277 109.596 61.86 109.612 61.8967L109.638 61.9522L109.648 61.9739L109.659 62.0008L109.668 62.0249L109.675 62.0434C109.675 62.0251 109.681 62.0058 109.689 61.9852C109.704 61.9506 109.727 61.9123 109.745 61.8684L109.85 61.6514L111.25 58.9566H111.824L109.906 62.5613Z" fill="white"></path><path d="M115.743 64.8222C116.269 64.8332 116.791 64.7255 117.269 64.5072L117.311 63.9822C116.863 64.2247 116.358 64.3454 115.849 64.3322C115.521 64.3395 115.196 64.275 114.896 64.1432C114.627 64.0228 114.388 63.8434 114.196 63.6183C114.009 63.3917 113.868 63.1299 113.784 62.8483C113.686 62.5454 113.639 62.2286 113.643 61.9104C113.639 61.5636 113.691 61.2185 113.798 60.8885C113.892 60.5897 114.047 60.3134 114.252 60.0765C114.445 59.8493 114.683 59.6656 114.952 59.5376C115.268 59.4073 115.606 59.3429 115.946 59.3486C116.405 59.3473 116.858 59.4528 117.269 59.6566V59.0896C116.85 58.9288 116.403 58.8504 115.953 58.8586C115.54 58.855 115.13 58.936 114.749 59.0966C114.403 59.2494 114.093 59.4736 113.84 59.7545C113.581 60.0379 113.383 60.3715 113.259 60.7345C113.118 61.1249 113.049 61.5375 113.056 61.9524C113.052 62.3431 113.116 62.7315 113.245 63.1003C113.362 63.438 113.548 63.7479 113.791 64.0102C114.027 64.2668 114.316 64.4696 114.638 64.6052C114.987 64.7549 115.364 64.8288 115.743 64.8222Z" fill="white"></path><path d="M123.1 64.7242H122.568V58.9566H123.1V64.7242Z" fill="white"></path><path d="M126.249 60.0975L129.448 64.7242H130.015V58.9566H129.476V63.9053C129.445 63.8448 129.41 63.7864 129.371 63.7303C129.336 63.6673 129.287 63.5973 129.238 63.5273L126.096 58.9566H125.501V64.7242H126.039V59.7336C126.055 59.7715 126.073 59.8087 126.091 59.8451C126.104 59.8689 126.117 59.8924 126.13 59.9155L126.145 59.9353L126.158 59.951L126.18 59.9762C126.215 60.0163 126.249 60.0554 126.249 60.0975Z" fill="white"></path><path d="M134.054 59.4466V64.7242H133.522V59.4466H131.856V58.9566H135.72V59.4466H134.054Z" fill="white"></path><path d="M137.575 58.9566V64.7242L140.501 64.7102V64.2202H138.1V62.0294H140.199V61.5464H138.1V59.4466H140.374V58.9566H137.575Z" fill="white"></path><path d="M146.849 64.3252C146.277 64.6504 145.631 64.8216 144.973 64.8222C144.586 64.8301 144.203 64.7562 143.846 64.6052C143.525 64.4696 143.236 64.2668 143 64.0102C142.763 63.7418 142.58 63.4306 142.461 63.0933C142.331 62.715 142.267 62.3173 142.272 61.9174C142.273 61.6443 142.303 61.3721 142.363 61.1055C142.425 60.8632 142.515 60.6285 142.628 60.4055C142.695 60.2762 142.77 60.1521 142.854 60.0341C142.873 60.0077 142.892 59.9816 142.912 59.9558C142.932 59.9296 142.953 59.9036 142.974 59.878C143 59.8456 143.028 59.8138 143.055 59.7825C143.228 59.5996 143.423 59.4396 143.636 59.3066C143.753 59.2355 143.874 59.1728 143.999 59.1191C144.06 59.093 144.122 59.0691 144.184 59.0473L144.215 59.0367L144.26 59.0217C144.285 59.0137 144.311 59.006 144.336 58.9986C144.615 58.9243 144.902 58.8866 145.19 58.8866C145.715 58.8789 146.235 58.9839 146.716 59.1946V59.7825C146.228 59.5121 145.678 59.3722 145.12 59.3766C144.793 59.3723 144.469 59.4367 144.168 59.5656C143.901 59.6939 143.664 59.8749 143.468 60.0975C143.261 60.3303 143.102 60.6014 143 60.8955C142.892 61.2184 142.836 61.5561 142.831 61.8964C142.829 62.2305 142.877 62.563 142.972 62.8833C143.061 63.1701 143.206 63.4364 143.398 63.6673C143.591 63.8875 143.83 64.0621 144.098 64.1782C144.401 64.3076 144.728 64.3697 145.057 64.3602C145.499 64.372 145.935 64.2682 146.324 64.0592V62.3024H145.015V61.8124H146.856L146.849 64.3252Z" fill="white"></path><path fill-rule="evenodd" clip-rule="evenodd" d="M151.399 63.0723L152.232 64.7242L152.89 64.7102L151.924 62.9253C151.889 62.8563 151.855 62.7936 151.821 62.736C151.794 62.6885 151.767 62.6445 151.742 62.6033C151.688 62.5147 151.627 62.4304 151.56 62.3514C151.506 62.2821 151.442 62.2208 151.371 62.1694C151.309 62.1143 151.238 62.0716 151.161 62.0434C151.352 61.9992 151.535 61.9285 151.707 61.8334C151.864 61.7452 152.006 61.6317 152.127 61.4974C152.188 61.4225 152.242 61.342 152.289 61.2571C152.327 61.1882 152.359 61.1165 152.386 61.0425C152.449 60.8602 152.48 60.6683 152.477 60.4755C152.481 60.3176 152.46 60.1604 152.414 60.0102C152.393 59.942 152.368 59.8753 152.337 59.8106C152.244 59.6298 152.116 59.4701 151.959 59.3416C151.796 59.2135 151.611 59.1162 151.413 59.0546C151.211 58.9898 151.001 58.9567 150.79 58.9566H149.131V64.7242H149.663V62.2114H150.3C150.408 62.2101 150.517 62.2243 150.622 62.2534C150.722 62.2843 150.817 62.3316 150.902 62.3934C150.995 62.4702 151.078 62.5597 151.147 62.6593C151.243 62.7891 151.327 62.9273 151.399 63.0723ZM149.628 61.7284V59.4466H150.629C150.964 59.4277 151.294 59.5295 151.56 59.7336C151.669 59.8331 151.756 59.9556 151.812 60.0923C151.869 60.229 151.896 60.3766 151.889 60.5245C151.89 60.6951 151.857 60.8641 151.791 61.0214C151.772 61.0639 151.752 61.1052 151.728 61.1449C151.701 61.192 151.67 61.237 151.636 61.2796C151.602 61.3221 151.565 61.3622 151.525 61.3994C151.406 61.5091 151.265 61.5926 151.112 61.6444C151.055 61.6635 150.998 61.6794 150.939 61.6921C150.821 61.7177 150.701 61.7299 150.58 61.7284H149.628Z" fill="white"></path><path fill-rule="evenodd" clip-rule="evenodd" d="M158.475 64.7242L157.845 63.0163H155.375L154.752 64.7242H154.157L156.355 58.9566H156.894L159.07 64.7242H158.475ZM156.719 59.9645L156.663 59.7896C156.641 59.7138 156.624 59.6366 156.613 59.5586C156.613 59.6496 156.578 59.7196 156.558 59.7896L156.502 59.9645L155.563 62.5334H157.663L156.719 59.9645Z" fill="white"></path><path d="M160.883 58.9566V64.7242H163.732V64.2342H161.422V58.9566H160.883Z" fill="white"></path><path fill-rule="evenodd" clip-rule="evenodd" d="M171.914 64.7242L171.046 63.0723C170.973 62.9287 170.888 62.7907 170.794 62.6593C170.725 62.5597 170.643 62.4702 170.549 62.3934C170.464 62.3316 170.37 62.2843 170.27 62.2534C170.162 62.2239 170.051 62.2098 169.94 62.2114H169.31V64.7242H168.772V58.9566H170.43C170.644 58.957 170.857 58.9901 171.06 59.0546C171.258 59.1162 171.443 59.2135 171.606 59.3416C171.763 59.4701 171.892 59.6298 171.984 59.8106C172.08 60.0191 172.127 60.2462 172.124 60.4755C172.127 60.6683 172.096 60.8602 172.033 61.0425C172.02 61.0805 172.005 61.1178 171.988 61.1544L171.973 61.1878C171.964 61.2049 171.955 61.2218 171.947 61.2385L171.93 61.2685L171.905 61.3111C171.864 61.3768 171.818 61.4391 171.767 61.4974C171.651 61.6332 171.511 61.747 171.354 61.8334C171.183 61.9285 170.999 61.9992 170.808 62.0434C170.886 62.0716 170.957 62.1143 171.018 62.1694C171.086 62.2245 171.15 62.2854 171.207 62.3514C171.274 62.4289 171.333 62.5134 171.382 62.6033C171.453 62.706 171.516 62.8136 171.571 62.9253L172.537 64.7102L171.914 64.7242ZM169.31 59.4466V61.7284H170.298C170.478 61.7306 170.658 61.7022 170.829 61.6444C170.983 61.5926 171.123 61.5091 171.242 61.3994C171.356 61.2933 171.447 61.1646 171.508 61.0214C171.572 60.8637 171.603 60.6946 171.599 60.5245C171.607 60.3771 171.583 60.2297 171.527 60.093C171.471 59.9562 171.386 59.8335 171.277 59.7336C171.011 59.5295 170.681 59.4277 170.346 59.4466H169.31Z" fill="white"></path><path d="M174.427 58.9566V64.7242L177.36 64.7102V64.2202H174.952V62.0294H177.052V61.5464H174.952V59.4466H177.227V58.9566H174.427Z" fill="white"></path><path d="M183.708 64.3252C183.134 64.6504 182.485 64.8215 181.825 64.8222C181.439 64.8284 181.055 64.7545 180.699 64.6052C180.377 64.4696 180.088 64.2668 179.852 64.0102C179.615 63.7418 179.432 63.4305 179.313 63.0933C179.189 62.7137 179.128 62.3166 179.131 61.9174C179.129 61.6441 179.159 61.3715 179.222 61.1054C179.279 60.8613 179.368 60.6258 179.488 60.4055C179.601 60.1791 179.744 59.9694 179.915 59.7825C180.084 59.5963 180.28 59.436 180.496 59.3066C180.713 59.1708 180.949 59.0671 181.196 58.9986C181.472 58.9243 181.756 58.8866 182.042 58.8866C182.577 58.877 183.107 58.9846 183.597 59.2016V59.7895C183.111 59.519 182.563 59.3792 182.008 59.3836C181.681 59.3784 181.356 59.4428 181.055 59.5726C180.789 59.7016 180.551 59.8824 180.356 60.1045C180.151 60.3376 179.994 60.6087 179.894 60.9024C179.78 61.2237 179.723 61.5625 179.726 61.9034C179.718 62.2373 179.763 62.5704 179.859 62.8903C179.948 63.177 180.093 63.4434 180.286 63.6742C180.48 63.893 180.718 64.0673 180.986 64.1852C181.289 64.3139 181.616 64.376 181.944 64.3672C182.386 64.3799 182.823 64.2761 183.211 64.0662V62.3093H181.902V61.8194H183.75L183.708 64.3252Z" fill="white"></path><path d="M185.948 64.7242H186.48V58.9566H185.948V64.7242Z" fill="white"></path><path d="M188.657 63.8772C188.692 63.9035 188.729 63.9286 188.766 63.9525C188.835 63.9968 188.906 64.0372 188.979 64.0732C189.049 64.1069 189.12 64.1373 189.192 64.1644C189.24 64.1821 189.287 64.1984 189.336 64.2132C189.457 64.2534 189.581 64.2838 189.707 64.3042C189.823 64.3143 189.941 64.3143 190.057 64.3042C190.402 64.3303 190.747 64.2417 191.037 64.0522C191.142 63.9689 191.227 63.8624 191.284 63.7409C191.341 63.6195 191.369 63.4864 191.366 63.3523C191.367 63.2155 191.341 63.0797 191.289 62.9533C191.231 62.8334 191.15 62.7262 191.051 62.6383C190.928 62.5226 190.791 62.4216 190.645 62.3374L190.064 62.0084C189.816 61.8731 189.607 61.7471 189.434 61.6304C189.275 61.5266 189.132 61.4018 189.007 61.2594C188.977 61.2269 188.948 61.1929 188.922 61.1575C188.903 61.1319 188.884 61.1056 188.867 61.0786C188.844 61.0441 188.824 61.0086 188.805 60.9722C188.787 60.9358 188.77 60.8986 188.755 60.8605C188.702 60.7002 188.676 60.5323 188.678 60.3635C188.673 60.1459 188.726 59.9308 188.832 59.7406C188.929 59.5549 189.065 59.3925 189.231 59.2646C189.313 59.2029 189.4 59.1481 189.49 59.1007C189.597 59.0445 189.71 58.9986 189.826 58.9636C190.053 58.8946 190.289 58.8593 190.526 58.8586C190.915 58.8474 191.302 58.9116 191.667 59.0476V59.6425C191.301 59.4408 190.888 59.3394 190.47 59.3486C190.307 59.347 190.144 59.3682 189.987 59.4116C189.907 59.431 189.829 59.4588 189.755 59.4945C189.697 59.5227 189.641 59.5558 189.588 59.5935C189.474 59.6709 189.381 59.774 189.315 59.8945C189.299 59.926 189.284 59.9584 189.272 59.9914C189.262 60.0173 189.254 60.0436 189.247 60.0702C189.232 60.1252 189.223 60.1817 189.219 60.2387C189.217 60.2616 189.217 60.2845 189.217 60.3075C189.214 60.3822 189.221 60.4568 189.236 60.5295C189.248 60.5852 189.265 60.6397 189.287 60.6925C189.303 60.7353 189.323 60.7766 189.346 60.8158C189.362 60.8425 189.38 60.8681 189.398 60.8927C189.428 60.9314 189.461 60.9675 189.497 61.0005C189.612 61.1131 189.741 61.2096 189.882 61.2874C190.043 61.3854 190.239 61.4974 190.47 61.6164C190.701 61.7354 190.918 61.8754 191.1 61.9944C191.191 62.0562 191.278 62.1232 191.361 62.1952C191.426 62.2513 191.488 62.3104 191.548 62.3723C191.779 62.624 191.907 62.9542 191.905 63.2963C191.913 63.5373 191.865 63.777 191.765 63.9962C191.669 64.1827 191.533 64.3454 191.366 64.4722C191.184 64.6036 190.98 64.7008 190.764 64.7592C190.619 64.7961 190.472 64.8219 190.324 64.8365C190.283 64.8405 190.241 64.8437 190.2 64.846C190.134 64.8496 190.067 64.851 190.001 64.8502H189.672C189.545 64.836 189.419 64.815 189.294 64.7872C189.161 64.7872 189.042 64.7242 188.923 64.6892C188.824 64.6551 188.728 64.6129 188.636 64.5632L188.657 63.8772Z" fill="white"></path><path d="M195.67 64.7242V59.4466H197.336V58.9566H193.48V59.4466H195.139V64.7242H195.67Z" fill="white"></path><path fill-rule="evenodd" clip-rule="evenodd" d="M202.327 64.7242L201.459 63.0723C201.388 62.9273 201.303 62.7891 201.207 62.6593C201.138 62.5597 201.056 62.4702 200.962 62.3934C200.88 62.3317 200.787 62.2844 200.689 62.2534C200.621 62.2348 200.55 62.2223 200.48 62.2161C200.458 62.2141 200.436 62.2128 200.414 62.212C200.396 62.2114 200.378 62.2112 200.36 62.2114H199.695V64.7242H199.163V58.9566H200.822C201.036 58.957 201.248 58.9901 201.452 59.0546C201.647 59.1177 201.83 59.2148 201.991 59.3416C202.148 59.4701 202.277 59.6298 202.369 59.8106C202.468 60.018 202.516 60.2459 202.509 60.4755C202.51 60.5276 202.508 60.5797 202.504 60.6315L202.5 60.6684L202.495 60.7117C202.481 60.8241 202.455 60.935 202.418 61.0425C202.297 61.3874 202.046 61.6713 201.718 61.8334C201.632 61.8813 201.542 61.923 201.45 61.9582C201.36 61.993 201.267 62.0214 201.172 62.0434C201.251 62.0731 201.324 62.1157 201.389 62.1694C201.456 62.2228 201.518 62.2839 201.571 62.3514C201.638 62.4304 201.699 62.5147 201.753 62.6033C201.809 62.6943 201.872 62.7993 201.935 62.9253L202.908 64.7102L202.327 64.7242ZM199.695 59.4466V61.7284H200.654C200.832 61.7301 201.01 61.7017 201.179 61.6444C201.332 61.5926 201.473 61.5091 201.592 61.3994C201.657 61.3411 201.714 61.275 201.762 61.2026C201.781 61.1739 201.799 61.1442 201.815 61.1137C201.831 61.0837 201.845 61.053 201.858 61.0214C201.924 60.8641 201.957 60.6951 201.956 60.5245C201.963 60.3766 201.937 60.229 201.88 60.0923C201.855 60.0341 201.826 59.9784 201.791 59.926C201.745 59.8554 201.69 59.7907 201.627 59.7336C201.363 59.526 201.031 59.4238 200.696 59.4466H199.695Z" fill="white"></path><path fill-rule="evenodd" clip-rule="evenodd" d="M205.988 64.5702C206.339 64.7286 206.722 64.8074 207.108 64.8012C207.509 64.8089 207.908 64.7302 208.277 64.5702C208.607 64.4209 208.901 64.2011 209.137 63.9262C209.375 63.64 209.554 63.3093 209.662 62.9533C209.784 62.5589 209.843 62.148 209.837 61.7354C209.844 61.3451 209.782 60.9567 209.655 60.5875C209.546 60.2468 209.367 59.9323 209.13 59.6636C208.902 59.4055 208.62 59.2001 208.305 59.0616C207.958 58.9089 207.584 58.8325 207.205 58.8376C206.8 58.832 206.398 58.9082 206.023 59.0616C205.69 59.2049 205.392 59.4173 205.148 59.6846C204.903 59.9639 204.717 60.2902 204.602 60.6435C204.478 61.0447 204.417 61.4625 204.42 61.8824C204.418 62.2701 204.479 62.6555 204.602 63.0233C204.721 63.365 204.904 63.681 205.141 63.9542C205.375 64.2187 205.664 64.4289 205.988 64.5702ZM206.226 59.5236C206.514 59.3868 206.831 59.3196 207.149 59.3276V59.3486C207.481 59.3313 207.811 59.3912 208.116 59.5236C208.374 59.6496 208.599 59.8342 208.773 60.0625C208.953 60.3009 209.083 60.572 209.158 60.8605C209.244 61.1729 209.286 61.4955 209.284 61.8194C209.286 62.1581 209.239 62.4952 209.144 62.8203C209.06 63.1084 208.919 63.3771 208.731 63.6113C208.539 63.8334 208.3 64.0102 208.031 64.1292C207.731 64.2584 207.406 64.3205 207.08 64.3112C206.755 64.3209 206.433 64.2512 206.141 64.1082C205.881 63.9802 205.653 63.7933 205.477 63.5623C205.435 63.5067 205.395 63.4494 205.358 63.3905C205.305 63.3051 205.257 63.2164 205.215 63.125C205.162 63.011 205.119 62.8927 205.085 62.7713C204.993 62.4673 204.951 62.1507 204.959 61.8334C204.957 61.5034 205.006 61.1751 205.106 60.8605C205.19 60.5687 205.333 60.2972 205.526 60.0625C205.715 59.8325 205.955 59.6482 206.226 59.5236Z" fill="white"></path><path d="M218.937 64.5072C218.458 64.7235 217.936 64.831 217.411 64.8222C217.029 64.8281 216.65 64.7542 216.298 64.6052C215.976 64.4696 215.688 64.2668 215.451 64.0102C215.21 63.7461 215.025 63.4368 214.905 63.1003C214.776 62.7315 214.712 62.3431 214.716 61.9524C214.713 61.5378 214.782 61.1258 214.919 60.7345C215.046 60.3728 215.244 60.0398 215.5 59.7545C215.756 59.4734 216.069 59.2493 216.417 59.0966C216.798 58.9352 217.207 58.8542 217.621 58.8586C218.07 58.8518 218.517 58.9301 218.937 59.0896V59.6566C218.526 59.4528 218.073 59.3473 217.614 59.3486C217.273 59.3415 216.934 59.4059 216.62 59.5376C216.338 59.6612 216.087 59.8452 215.885 60.0765C215.682 60.3152 215.528 60.5909 215.43 60.8885C215.324 61.2185 215.272 61.5636 215.276 61.9104C215.275 62.2283 215.322 62.5446 215.416 62.8483C215.501 63.1299 215.641 63.3917 215.829 63.6183C216.021 63.8419 216.26 64.021 216.529 64.1432C216.829 64.2742 217.154 64.3386 217.481 64.3322C217.993 64.3453 218.5 64.2247 218.951 63.9822L218.937 64.5072Z" fill="white"></path><path d="M221.813 60.0975L225.012 64.7242H225.593V58.9566H225.04V63.9053C225.009 63.8448 224.974 63.7864 224.935 63.7303C224.912 63.6878 224.882 63.6422 224.85 63.5955L224.802 63.5273L221.659 58.9566H221.071V64.7242H221.603V59.7336L221.625 59.7826L221.642 59.8185L221.654 59.8426C221.667 59.8673 221.68 59.8916 221.694 59.9155L221.813 60.0975Z" fill="white"></path><path d="M229.961 64.7242H229.436L227.336 58.9566H227.938L229.569 63.5623C229.569 63.5829 229.572 63.604 229.578 63.6252C229.581 63.6374 229.585 63.6497 229.589 63.662C229.593 63.6757 229.598 63.6894 229.604 63.7031L229.61 63.7199C229.624 63.7542 229.638 63.7883 229.646 63.8212C229.655 63.8546 229.664 63.8882 229.671 63.922C229.684 63.9789 229.694 64.0363 229.702 64.0942C229.702 64.0405 229.719 63.9834 229.737 63.9252L229.746 63.8946L229.758 63.8492C229.763 63.8291 229.769 63.8077 229.775 63.7853C229.784 63.7562 229.794 63.7254 229.805 63.6938C229.82 63.6488 229.837 63.6021 229.856 63.5553L231.55 58.9566H232.131L229.961 64.7242Z" fill="white"></path><path d="M237.793 60.0975L240.992 64.7242H241.552V58.9566H241.02V63.9053C241.008 63.8813 240.995 63.8578 240.981 63.8345C240.96 63.799 240.939 63.7642 240.915 63.7303L240.782 63.5273L237.639 58.9566H237.044V64.7242H237.583V59.7336C237.596 59.7651 237.611 59.7961 237.626 59.8267C237.641 59.8568 237.657 59.8865 237.674 59.9155L237.793 60.0975Z" fill="white"></path><path fill-rule="evenodd" clip-rule="evenodd" d="M244.63 61.896L244.591 61.8875L244.544 61.8756C244.51 61.8666 244.477 61.8564 244.444 61.8449L244.4 61.8288L244.359 61.8124C244.189 61.7438 244.036 61.6386 243.911 61.5044C243.784 61.368 243.689 61.2056 243.631 61.0285L243.612 60.9725L243.597 60.9201C243.59 60.8989 243.585 60.8775 243.579 60.8561C243.57 60.8156 243.561 60.7747 243.555 60.7336C243.537 60.63 243.53 60.5249 243.533 60.4195C243.531 60.3311 243.536 60.243 243.547 60.1556C243.563 60.024 243.594 59.8942 243.638 59.7685C243.666 59.6824 243.704 59.6001 243.751 59.523C243.803 59.4366 243.866 59.3568 243.939 59.2856C244.012 59.2098 244.094 59.1439 244.183 59.0894C244.221 59.0668 244.259 59.0461 244.298 59.0274C244.332 59.0117 244.366 58.9974 244.401 58.9846C244.591 58.9124 244.792 58.8767 244.996 58.8796C245.192 58.8766 245.387 58.9123 245.57 58.9846C245.736 59.049 245.887 59.1494 246.01 59.2786C246.061 59.3373 246.108 59.3997 246.149 59.4652C246.206 59.5562 246.253 59.6532 246.291 59.7545C246.355 59.9583 246.385 60.171 246.382 60.3845C246.386 60.5963 246.353 60.8072 246.284 61.0075C246.222 61.1862 246.124 61.3505 245.996 61.4904C245.871 61.6305 245.716 61.7406 245.542 61.8124C245.353 61.891 245.151 61.9291 244.947 61.9244C244.909 61.9252 244.871 61.9245 244.834 61.9223C244.791 61.9199 244.749 61.9155 244.707 61.9093C244.681 61.9056 244.656 61.9011 244.63 61.896ZM244.947 59.2576C244.807 59.2549 244.668 59.2836 244.541 59.3416C244.422 59.3908 244.316 59.4675 244.233 59.5655C244.142 59.6726 244.073 59.7962 244.03 59.9295C244.012 59.9905 243.998 60.0523 243.987 60.1146C243.976 60.1751 243.968 60.236 243.964 60.2973C243.961 60.3356 243.96 60.374 243.96 60.4125C243.956 60.5694 243.979 60.7258 244.03 60.8745C244.067 61.0054 244.131 61.1271 244.219 61.2314C244.302 61.3294 244.408 61.4062 244.527 61.4554C244.658 61.5077 244.798 61.5339 244.94 61.5324C245.076 61.5333 245.212 61.5072 245.339 61.4554C245.456 61.4078 245.56 61.3306 245.64 61.2314C245.727 61.1271 245.791 61.0054 245.829 60.8745C245.878 60.7208 245.902 60.5599 245.899 60.3985C245.922 60.2335 245.919 60.0659 245.892 59.9015C245.879 59.8579 245.864 59.8153 245.846 59.774C245.831 59.7398 245.814 59.7065 245.794 59.6744C245.768 59.6287 245.737 59.5853 245.703 59.5445C245.685 59.5236 245.666 59.5036 245.647 59.4844C245.635 59.4724 245.622 59.4608 245.609 59.4495L245.584 59.4285C245.572 59.4181 245.559 59.4081 245.546 59.3985C245.501 59.3658 245.452 59.3374 245.402 59.3136C245.333 59.2892 245.262 59.2722 245.19 59.2629C245.118 59.2537 245.046 59.2519 244.975 59.2576H244.947Z" fill="white"></path><path d="M252.408 59.5656V64.7242L252.891 64.7592V58.8656H252.772C252.507 59.09 252.226 59.2958 251.932 59.4816C251.648 59.6553 251.345 59.7962 251.029 59.9015V60.3215C251.144 60.2839 251.256 60.2395 251.365 60.1885C251.491 60.1395 251.61 60.0765 251.737 60.0135L252.093 59.8035C252.202 59.7299 252.308 59.6504 252.408 59.5656Z" fill="white"></path><path d="M258.561 59.2016L257.987 60.2585C257.812 60.5945 257.651 60.9095 257.504 61.2175C257.357 61.5254 257.231 61.8264 257.112 62.1134C256.993 62.4004 256.888 62.6943 256.797 62.9813C256.706 63.2683 256.622 63.5553 256.552 63.8493C256.482 64.1432 256.426 64.4442 256.377 64.7522H255.838C255.869 64.5468 255.908 64.3425 255.953 64.1398C256.004 63.9125 256.064 63.6872 256.132 63.4643C256.181 63.2974 256.233 63.1315 256.289 62.9667C256.383 62.6859 256.487 62.4083 256.601 62.1344C256.783 61.6864 256.986 61.2384 257.21 60.7835C257.355 60.4896 257.508 60.2045 257.66 59.9206L257.761 59.734C257.811 59.6406 257.861 59.5473 257.91 59.4536H254.991V58.9846H258.582L258.561 59.2016Z" fill="white"></path><path d="M263.047 60.2585L263.621 59.2016V58.9846H260.031V59.4536H262.971C262.74 59.8945 262.494 60.3285 262.271 60.7835C262.046 61.2384 261.843 61.6864 261.662 62.1344C261.481 62.569 261.325 63.0129 261.193 63.4643C261.064 63.8859 260.965 64.3164 260.899 64.7522H261.437C261.487 64.4442 261.543 64.1432 261.612 63.8493C261.65 63.6898 261.692 63.5323 261.737 63.3758C261.775 63.2439 261.816 63.1126 261.857 62.9813C261.948 62.6943 262.054 62.4004 262.173 62.1134C262.291 61.8264 262.418 61.5254 262.565 61.2175C262.711 60.9095 262.872 60.5945 263.047 60.2585Z" fill="white"></path><path fill-rule="evenodd" clip-rule="evenodd" d="M97.0757 6.34153H106.728C108.106 6.33311 109.483 6.44081 110.844 6.66352C112.007 6.84502 113.128 7.23383 114.154 7.81142C115.061 8.33367 115.82 9.07796 116.359 9.97426C116.925 11.0085 117.201 12.1767 117.157 13.355C117.157 13.9999 117.063 14.6412 116.877 15.2589C116.688 15.894 116.397 16.4944 116.016 17.0367C115.602 17.6062 115.096 18.1029 114.518 18.5066C113.884 18.9528 113.172 19.2758 112.419 19.4586V19.6335C114.137 19.8579 115.743 20.6141 117.01 21.7964C117.551 22.4 117.967 23.1048 118.233 23.8701C118.5 24.6355 118.613 25.4461 118.564 26.2551C118.598 27.5469 118.31 28.8268 117.724 29.9788C117.162 31.0119 116.361 31.8952 115.386 32.5546C114.32 33.2651 113.135 33.7773 111.887 34.0665C110.475 34.4082 109.027 34.575 107.575 34.5634H97.0757V6.34153ZM106.427 17.7227C107.639 17.8234 108.847 17.4965 109.843 16.7987C110.202 16.4846 110.486 16.0939 110.673 15.6553C110.861 15.2167 110.948 14.7416 110.928 14.2649C110.966 13.8182 110.884 13.3694 110.69 12.9655C110.495 12.5615 110.195 12.2174 109.822 11.9691C108.803 11.4382 107.658 11.1962 106.511 11.2692H103.48V17.7157L106.427 17.7227ZM107.029 29.6218C110.547 29.6218 112.309 28.3386 112.314 25.7721C112.354 25.2438 112.252 24.7143 112.02 24.2382C111.787 23.7621 111.432 23.3566 110.991 23.0633C109.773 22.4245 108.402 22.1338 107.029 22.2233H103.48V29.6288L107.029 29.6218Z" fill="white"></path><path d="M139.843 6.34153H122.141V34.5634H140.277V29.1948H128.545V22.7063H138.156V17.3797H128.545V11.7101H139.843V6.34153Z" fill="white"></path><path d="M142.04 20.6275C142.01 18.5037 142.378 16.3931 143.125 14.4049C143.781 12.6758 144.773 11.0938 146.044 9.75027C147.255 8.49422 148.717 7.50694 150.335 6.8525C151.977 6.18553 153.735 5.84782 155.507 5.85856C157.166 5.83438 158.806 6.21137 160.288 6.95748C161.607 7.61046 162.812 8.47065 163.858 9.50528L160.358 13.446C159.71 12.8332 158.982 12.3106 158.195 11.8921C157.388 11.4951 156.497 11.3005 155.598 11.3252C154.645 11.3192 153.703 11.5348 152.848 11.9551C151.984 12.384 151.225 12.9955 150.622 13.747C149.949 14.5999 149.441 15.5707 149.124 16.6098C148.75 17.8437 148.568 19.1281 148.585 20.4175C148.585 23.3293 149.205 25.5878 150.447 27.193C151.021 27.9649 151.774 28.5865 152.64 29.0045C153.507 29.4226 154.462 29.6248 155.423 29.5938C156.483 29.621 157.533 29.3803 158.475 28.8938C159.344 28.4215 160.127 27.8063 160.792 27.074L164.292 30.9307C163.205 32.2499 161.835 33.3083 160.285 34.0279C158.734 34.7475 157.042 35.1099 155.332 35.0884C153.573 35.0968 151.826 34.7812 150.181 34.1574C148.589 33.5505 147.143 32.613 145.939 31.4067C144.68 30.1172 143.706 28.5764 143.083 26.885C142.355 24.8807 142.002 22.7596 142.04 20.6275Z" fill="white"></path><path d="M185.115 6.34153H167.406V34.5634H185.528V29.1948H173.797V22.7063H183.407V17.3797H173.797V11.7101H185.115V6.34153Z" fill="white"></path><path fill-rule="evenodd" clip-rule="evenodd" d="M205.246 34.5634L199.835 24.3932H196.37V34.5634H189.966V6.34153H200.136C201.547 6.33589 202.955 6.48137 204.336 6.77551C205.573 7.03225 206.749 7.52412 207.8 8.22439C208.811 8.90274 209.634 9.82471 210.194 10.9052C210.808 12.2177 211.103 13.6567 211.055 15.1049C211.123 16.9179 210.635 18.7082 209.655 20.2355C208.748 21.5597 207.487 22.6025 206.016 23.2453L212.378 34.5424L205.246 34.5634ZM196.37 19.3046H199.618C200.977 19.3973 202.328 19.0245 203.447 18.2476C203.897 17.8634 204.251 17.379 204.481 16.8333C204.711 16.2875 204.81 15.6956 204.77 15.1049C204.77 13.705 204.329 12.7391 203.447 12.2071C202.269 11.5919 200.945 11.3089 199.618 11.3882H196.37V19.3046Z" fill="white"></path><path fill-rule="evenodd" clip-rule="evenodd" d="M225.369 24.3932L230.787 34.5634L237.912 34.5424L231.55 23.2453C233.02 22.6044 234.279 21.561 235.182 20.2355C236.165 18.7095 236.653 16.9182 236.582 15.1049C236.63 13.6567 236.335 12.2177 235.721 10.9052C235.175 9.83039 234.369 8.90896 233.377 8.22439C232.314 7.52 231.126 7.02797 229.877 6.77551C228.496 6.48137 227.089 6.33589 225.677 6.34153H215.5V34.5634H221.912V24.3932H225.369ZM225.159 19.3046H221.912V11.3882H225.159C226.486 11.3089 227.809 11.5919 228.988 12.2071C229.87 12.7391 230.311 13.705 230.311 15.1049C230.351 15.6956 230.252 16.2875 230.022 16.8333C229.793 17.379 229.438 17.8634 228.988 18.2476C227.869 19.0245 226.518 19.3973 225.159 19.3046Z" fill="white"></path><path fill-rule="evenodd" clip-rule="evenodd" d="M256.517 27.8579H247.858L246.129 34.5634H239.634L248.51 6.34153H256.125L265 34.5634H258.246L256.517 27.8579ZM255.215 22.8743L254.515 20.2775C254.118 18.8776 253.736 17.3774 253.367 15.7768C253.01 14.1879 252.625 12.6621 252.226 11.1922H252.051C251.729 12.6901 251.386 14.2299 251.008 15.7978C250.63 17.3657 250.245 18.8636 249.839 20.2775L249.139 22.8743H255.215Z" fill="white"></path><path fill-rule="evenodd" clip-rule="evenodd" d="M100.302 41.5629H97.0757L97.0477 52.3771H100.547C101.107 52.3838 101.664 52.318 102.206 52.1811C102.671 52.0631 103.109 51.8615 103.501 51.5862C103.859 51.3291 104.147 50.9877 104.341 50.5922C104.554 50.1571 104.657 49.6765 104.642 49.1923C104.659 48.869 104.609 48.5456 104.496 48.2421C104.383 47.9387 104.209 47.6618 103.984 47.4285C103.469 46.9641 102.819 46.6749 102.129 46.6025V46.5605C102.703 46.4481 103.216 46.1294 103.571 45.6646C103.877 45.2383 104.038 44.726 104.033 44.2017C104.045 43.7816 103.951 43.3653 103.76 42.9908C103.578 42.6561 103.313 42.374 102.99 42.1719C102.627 41.9479 102.226 41.7914 101.807 41.7099C101.312 41.608 100.808 41.5588 100.302 41.5629ZM102.059 45.7066C101.462 46.0738 100.763 46.2405 100.065 46.1826L98.4616 46.1406V42.6408H100.127C100.783 42.599 101.437 42.7319 102.024 43.0258C102.237 43.1614 102.409 43.3521 102.523 43.5776C102.636 43.803 102.686 44.055 102.668 44.3067C102.686 44.5717 102.639 44.837 102.533 45.0805C102.428 45.324 102.265 45.5387 102.059 45.7066ZM102.514 50.7812C101.858 51.1654 101.103 51.3457 100.344 51.2992H98.4616V47.2045H100.344C101.102 47.1594 101.858 47.3241 102.528 47.6805C102.776 47.8351 102.976 48.0544 103.108 48.3147C103.24 48.575 103.299 48.8663 103.277 49.1573C103.301 49.4709 103.243 49.7852 103.11 50.0698C102.976 50.3544 102.771 50.5995 102.514 50.7812Z" fill="white"></path><path d="M120.734 41.5629H122.134V47.9534C122.124 48.5035 122.19 49.0522 122.33 49.5843C122.436 49.9696 122.619 50.3292 122.869 50.6412C123.078 50.896 123.351 51.0915 123.66 51.2082C123.975 51.3279 124.31 51.3873 124.647 51.3832C124.993 51.3873 125.337 51.328 125.662 51.2082C125.977 51.0921 126.256 50.8968 126.474 50.6412C126.728 50.3315 126.914 49.9713 127.02 49.5843C127.163 49.0529 127.229 48.5036 127.216 47.9534V41.5629H128.539V47.9184C128.55 48.658 128.446 49.3948 128.231 50.1023C128.063 50.6356 127.784 51.1272 127.412 51.5442C127.08 51.9081 126.664 52.1846 126.201 52.3491C125.196 52.6664 124.118 52.6664 123.114 52.3491C122.642 52.1927 122.216 51.9208 121.875 51.5582C121.493 51.1392 121.207 50.6425 121.035 50.1023C120.817 49.3907 120.715 48.6485 120.734 47.9044V41.5629Z" fill="white"></path><path fill-rule="evenodd" clip-rule="evenodd" d="M147.962 47.8204L150.566 52.3911L152.12 52.3701L149.369 47.6525C150.05 47.4944 150.666 47.1302 151.133 46.6095C151.595 46.0376 151.83 45.3144 151.791 44.5797C151.804 44.098 151.708 43.6195 151.511 43.1798C151.333 42.8058 151.063 42.483 150.727 42.2419C150.368 41.9867 149.961 41.808 149.53 41.7169C149.031 41.6091 148.522 41.5575 148.011 41.5629H144.609V52.3911H146.009V47.8204H147.962ZM147.829 46.6935H146.009V42.6688H147.829C148.502 42.6269 149.174 42.7748 149.768 43.0958C150.008 43.2621 150.199 43.489 150.322 43.7535C150.445 44.0179 150.495 44.3103 150.468 44.6007C150.487 44.9002 150.433 45.1998 150.311 45.474C150.189 45.7482 150.003 45.9889 149.768 46.1756C149.197 46.5589 148.515 46.7411 147.829 46.6935Z" fill="white"></path><path d="M169.058 50.0323C169.446 50.4406 169.907 50.773 170.416 51.0122C170.925 51.2561 171.482 51.3829 172.047 51.3832C172.644 51.4189 173.234 51.2484 173.72 50.9002C173.909 50.746 174.061 50.5503 174.163 50.3282C174.265 50.1061 174.315 49.8636 174.308 49.6193C174.313 49.4917 174.302 49.3644 174.275 49.2403C174.263 49.1857 174.249 49.1317 174.231 49.0786C174.213 49.0245 174.192 48.9713 174.168 48.9193C174.079 48.7266 173.947 48.5567 173.783 48.4224C173.606 48.2741 173.411 48.1494 173.202 48.0514L172.502 47.7014L170.948 47.0015C170.686 46.8837 170.432 46.7505 170.185 46.6025C169.93 46.4454 169.695 46.2573 169.485 46.0426C169.27 45.8123 169.094 45.5473 168.967 45.2586C168.829 44.9262 168.763 44.5685 168.772 44.2087C168.769 43.8143 168.855 43.4245 169.023 43.0678C169.192 42.7176 169.43 42.4056 169.723 42.1509C170.043 41.8868 170.409 41.6828 170.801 41.5489C171.839 41.2211 172.959 41.2782 173.958 41.7099C174.483 41.9383 174.958 42.2663 175.358 42.6758L174.658 43.5647C174.337 43.2512 173.962 42.9976 173.552 42.8158C173.126 42.6294 172.666 42.5364 172.201 42.5428C171.676 42.5153 171.156 42.663 170.724 42.9628C170.653 43.0166 170.588 43.0768 170.529 43.1426C170.439 43.2423 170.364 43.3547 170.306 43.4765C170.21 43.6786 170.164 43.9009 170.171 44.1247C170.159 44.3684 170.215 44.6107 170.332 44.8247C170.445 45.0053 170.587 45.1661 170.752 45.3006C170.932 45.4436 171.126 45.5657 171.333 45.6646C171.55 45.7696 171.76 45.8676 171.97 45.9516L173.517 46.6515C173.82 46.7769 174.113 46.9267 174.392 47.0995C174.653 47.2627 174.889 47.4631 175.092 47.6944C175.295 47.93 175.454 48.2003 175.561 48.4924C175.685 48.8258 175.744 49.1797 175.736 49.5353C175.74 49.9509 175.651 50.3621 175.477 50.7392C175.308 51.1186 175.057 51.4557 174.742 51.7261C174.4 52.018 174.006 52.2414 173.58 52.3841C173.084 52.55 172.563 52.6305 172.04 52.6221C171.318 52.6298 170.602 52.4843 169.94 52.1951C169.31 51.9185 168.741 51.5187 168.267 51.0192L169.058 50.0323Z" fill="white"></path><path fill-rule="evenodd" clip-rule="evenodd" d="M194.257 49.0873H198.204L199.254 52.3911H200.71L197.043 41.5629H195.495L191.814 52.3911H193.214L194.257 49.0873ZM197.343 46.3295L197.854 47.9814L194.607 48.0024L195.124 46.3295C195.313 45.7276 195.495 45.1186 195.67 44.5237C195.845 43.9287 196.02 43.3128 196.195 42.6828H196.272C196.357 42.9859 196.441 43.2858 196.525 43.5816C196.616 43.9006 196.707 44.215 196.797 44.5237C196.975 45.1256 197.157 45.7276 197.343 46.3295Z" fill="white"></path><path d="M198.414 38.1332L196.454 40.59H195.502L197.175 38.1332H198.414Z" fill="white"></path><path d="M216.795 42.7178H220.078L220.05 52.3911H221.449V42.7178H224.732V41.5629H216.795V42.7178Z" fill="white"></path><path d="M240.838 41.5629H242.238V52.3911H240.838V41.5629Z" fill="white"></path><path d="M259.723 41.5629H258.323L258.337 52.3911H264.44V51.2222H259.723V41.5629Z" fill="white"></path></svg>